<svg width="44" height="44" viewBox="0 0 44 44" fill="none" xmlns="http://www.w3.org/2000/svg">
<g clip-path="url(#clip0_1_38)">
<path d="M11 34.8333C11 36.85 12.65 38.5 14.6667 38.5H29.3334C31.35 38.5 33 36.85 33 34.8333V12.8333H11V34.8333ZM15.51 21.78L18.095 19.195L22 23.0817L25.8867 19.195L28.4717 21.78L24.585 25.6667L28.4717 29.5533L25.8867 32.1383L22 28.2517L18.1134 32.1383L15.5284 29.5533L19.415 25.6667L15.51 21.78ZM28.4167 7.33333L26.5834 5.5H17.4167L15.5834 7.33333H9.16669V11H34.8334V7.33333H28.4167Z" fill="black"/>
</g>
<defs>
<clipPath id="clip0_1_38">
<rect width="44" height="44" fill="white"/>
</clipPath>
</defs>
</svg>
